# xmcd CD database file
#
# Track frame offsets:
#	150
#	23853
#	43031
#	86585
#	117504
#	158200
#	186538
#	216468
#	246068
#	275773
#	321864
#
# Disc length: 4983 seconds
#
# Revision: 0
# Processed by: cddbd v1.5.2PL0 Copyright (c) Steve Scherf et al.
# Submitted via: CDex 1.77
#
DISCID=a613750b
DTITLE=Freddie Hubbard - Classic Recordings 1960-1962 - Disc2
DYEAR=1960
DGENRE=Jazz
TTITLE0=Hub Cap
TTITLE1=Cry Me Not
TTITLE2=Luana
TTITLE3=Osie Mae
TTITLE4=Plexus
TTITLE5=Earmon Jr.
TTITLE6=Arietis
TTITLE7=Weaver of Dreams
TTITLE8=Marie Antoinette
TTITLE9=Birdlike
TTITLE10=Crisis
EXTD=YEAR: 1960
EXTT0=
EXTT1=
EXTT2=
EXTT3=
EXTT4=
EXTT5=
EXTT6=
EXTT7=
EXTT8=
EXTT9=
EXTT10=
PLAYORDER=
